<svg xmlns="http://www.w3.org/2000/svg" viewBox="0 0 144.7 111.5">
<!-- SVG created with Arrow, by QuiverAI (https://quiver.ai) -->
  <style type="text/css">.cls-0 {fill:#FCF8EF;}
.cls-1 {fill:#D6AB66;}
.cls-2 {fill:#291C08;}
.cls-3 {fill:#311E04;}</style>
  <path class="cls-1" d="m2.6 86.9c6.9-4 24.5-10.9 72.2-12.2 30-0.6 56.5 1.4 67.6 3.6l0.1 1.3c-13.5 0-46-1.4-68.4 7.4-6.8 2.7-14.6 8.4 0.9 12.6 14.9 4.1 35.5 7.1 52.8 8.9-9.5 0.7-50.2 0.8-73.1-4.9-9.7-2-20.7-5.3-17.9-10.8s17.2-8.8 30.9-10.7c10.9-1.6 24.7-3.5 33.3-4.1v-0.1c-36-1.6-73.7 1.5-98.4 9z"/>
  <path class="cls-2" d="m90.9 69.6h-30.6c-3.4 0.1-3.5 2.2-3.5 3.4 2.8-0.4 10.9-0.7 18.8-0.6 7.9 0 15.1-0.2 19.1 0.4 0.1-1.9-0.7-3.2-3.8-3.2z"/>
  <path class="cls-2" d="m124 6.9c-1.8 0.4-1.6 3.5 1 3.7 1.6 2.6-2.2 6.2-8 3.1-4.8-2.3-12.9-9.6-22.5-11-11.4-1.1-17.3 5-17.3 11.9v49h-3.3v-48.8c0.1-7.7-7.3-11.7-12.2-12.1-9.7-0.8-16.7 3.8-22.3 7.1-3.5 2.1-6.9 4.9-10.2 5.1-4.2-0.2-4-4.1-2.6-4.3 3 0 2.3-3.7-0.3-3.6-4.3 0.5-4.5 9.9 2.9 10.2 3.3 0 5.7-1.2 8.8-2.9 4.2-2.2 11.6-7.5 19.5-7.7 9-0.2 14.1 5.5 14.1 12.2v44.8h-3.2c-2.3 0.1-4.5 1.9-4.5 4.6h2.2c0.1-1.2 0.8-2.5 2.9-2.5h13.7c1.6 0 2.8 0.9 2.9 2.4h2.1c-0.1-2.9-2.2-4.5-4.5-4.5h-3.8v-44.4c0-7.7 7.5-12.7 14.3-12.6 7.3 0 12 2.5 16.4 4.6 5.1 2.7 9.2 6.4 13.5 5.9 4-0.4 5.3-3.5 4.8-6.9-0.5-1.8-1.7-3.6-4.4-3.3z"/>
  <path class="cls-3" d="m10.1 51.9c2.5 3.6 8.3 7.8 18 7.9 7.9 0.1 14.7-2.5 18.4-7.8l-36.4-0.1z"/>
  <path class="cls-2" d="m27.9 19.3-15.8 30.1h1l15.1-29.1 15.1 29.2h1l-15.7-30.2c-0.1-0.2-0.6-0.3-0.7 0z"/>
  <path class="cls-3" d="m105.1 51.9c2.5 3.6 8.3 7.8 18 7.9 6.4 0 13.9-1.6 18.4-7.8l-36.4-0.1z"/>
  <path class="cls-2" d="m123 19c-0.1 0-0.2 0.1-0.1 0l-15.5 30.4h1.1l15.1-29.1 14.8 29.2h1l-15.4-30.2c-0.1-0.1-0.4-0.7-1-0.3z"/>
</svg>